<svg width="46" height="46" viewBox="0 0 46 46" fill="none" xmlns="http://www.w3.org/2000/svg">
<path d="M44.75 12.2388H9.75V26.8221C9.75 31.4634 11.5937 35.9146 14.8756 39.1965C18.1575 42.4784 22.6087 44.3221 27.25 44.3221C31.8913 44.3221 36.3425 42.4784 39.6244 39.1965C42.9063 35.9146 44.75 31.4634 44.75 26.8221V12.2388Z" stroke="black" stroke-width="2" stroke-linecap="round" stroke-linejoin="round"/>
<path d="M9.75 15.1558H6.83333C5.28624 15.1558 3.80251 15.7703 2.70854 16.8643C1.61458 17.9583 1 19.442 1 20.9891C1 22.5362 1.61458 24.0199 2.70854 25.1139C3.80251 26.2079 5.28624 26.8224 6.83333 26.8224H9.75" stroke="black" stroke-width="2" stroke-linecap="round" stroke-linejoin="round"/>
<path d="M22.8563 8.51956C22.8054 5.60334 24.238 4.11977 24.1871 1.20355M34.5212 8.31594C34.4702 5.39972 35.9029 3.91616 35.852 0.999941M28.6887 8.41775C28.6378 5.50153 30.0705 4.01797 30.0196 1.10175" stroke="black" stroke-width="2" stroke-linecap="round" stroke-linejoin="round"/>
</svg>
